<?xml version="1.0" encoding="utf-8"?><svg viewBox="0 0 1920 1271" xmlns="http://www.w3.org/2000/svg" xmlns:xlink="http://www.w3.org/1999/xlink"><style>:root>svg{display:none}:root>svg:target{display:block}</style><svg viewBox="0 0 14 7" id="accordion-arrow" xmlns="http://www.w3.org/2000/svg"><path d="M14.001 1.161a1 1 0 01-.37.78l-6 4.83a1 1 0 01-1.27 0l-6-5a1.001 1.001 0 011.28-1.54l5.36 4.47 5.36-4.32a1 1 0 011.64.78z"/></svg><svg viewBox="0 0 332 162" id="adv-item-bg" xmlns="http://www.w3.org/2000/svg"><rect opacity=".07" x="300.2" y="-12" width="441.517" height="441.517" rx="30" transform="rotate(45 300.2 -12)"/></svg><svg viewBox="0 0 1920 1271" id="answers-bg" xmlns="http://www.w3.org/2000/svg"><path d="M0 690h1920v581H0V690zM1920 29l-230.98 19.852-4.81.33-4.81.324-4.81.32-4.82.314-4.81.31-4.81.303-4.81.299-4.81.293-4.82.288-4.81.281-4.81.277-4.81.27-4.81.265-4.82.26-4.81.252-4.81.248-4.81.24-4.81.236-4.82.228-4.81.223-4.81.216-4.81.21-4.81.204-4.82.197-4.81.19-4.81.185-4.81.177-4.81.172-4.82.164-4.81.157-4.81.152-4.81.144-4.81.137-4.82.13-4.81.124-4.81.117-4.81.11-4.81.103-4.82.096-4.81.088-4.81.082-4.81.075-4.81.068-4.82.06-4.81.054-4.81.046-4.81.04-4.81.032-4.82.025-4.81.018-4.81.01-4.81.004-4.82-.004-4.81-.01-4.81-.018-4.81-.025-4.81-.032-4.82-.04-4.81-.046-4.81-.054-4.81-.06-4.81-.068-4.82-.075-4.81-.082-4.81-.088-4.81-.096-4.81-.103-4.82-.11-4.81-.117-4.81-.123-4.81-.131-4.81-.137-4.82-.145-4.81-.15-4.81-.158-4.81-.164-4.81-.172-4.82-.177-4.81-.184-4.81-.191-4.81-.197-4.81-.204-4.82-.21-4.81-.216-4.81-.223-4.81-.228-4.81-.235-4.82-.241-4.81-.248-4.81-.253-4.81-.259-4.81-.264-4.82-.271-4.81-.277-4.81-.282-4.81-.287-4.81-.293-4.82-.299-4.81-.304-4.81-.309-4.81-.314-4.81-.32-4.82-.325-4.81-.33L726.617 9.149l-4.812-.33-4.812-.324-4.812-.32-4.812-.314-4.813-.31-4.812-.303-4.812-.299-4.812-.293-4.812-.288-4.812-.281-4.812-.277-4.812-.27-4.812-.265-4.812-.26-4.812-.252-4.812-.247-4.812-.242L640 4.038l-4.812-.228-4.812-.223-4.812-.216-4.812-.21-4.812-.204-4.812-.197-4.812-.19-4.812-.185-4.812-.177-4.812-.171-4.812-.165-4.812-.158-4.812-.15-4.812-.145-4.812-.137-4.812-.13-4.812-.124-4.812-.117-4.812-.11-4.812-.103-4.813-.095-4.812-.09-4.812-.081-4.812-.075-4.812-.068-4.812-.06-4.812-.054-4.812-.046-4.812-.04-4.812-.032-4.812-.025-4.812-.018-4.812-.01L476.391 0l-4.812.004-4.812.01-4.812.018-4.812.025-4.812.032-4.812.04-4.812.046-4.812.054-4.812.06-4.812.068-4.812.075-4.812.082-4.812.089-4.812.095-4.812.103-4.812.11-4.812.117-4.812.123-4.812.131-4.813.137-4.812.145-4.812.15-4.812.158-4.812.165-4.812.17-4.812.178-4.812.184-4.812.191-4.812.197-4.812.204-4.812.21-4.812.216-4.812.223-4.812.228-4.812.235-4.812.242-4.812.247-4.812.253-4.812.259-4.812.265-4.812.27-4.812.277-4.812.281-4.812.288-4.812.293-4.812.299-4.812.304-4.812.309-4.812.314-4.812.32-4.812.325-4.812.33L0 28.543V523h1920V29z"/><path d="M0 699l230.977-19.852 4.812-.329 4.812-.325 4.813-.32 4.812-.314 4.812-.309 4.812-.304 4.812-.299 4.812-.293 4.812-.288 4.812-.281 4.812-.277 4.812-.27 4.812-.265 4.812-.259 4.812-.253 4.812-.247 4.812-.242 4.812-.235 4.812-.228 4.812-.223 4.812-.216 4.812-.21 4.812-.204 4.812-.197 4.812-.191 4.812-.184 4.812-.177 4.812-.172 4.812-.164 4.812-.158 4.812-.15 4.812-.145 4.812-.137 4.812-.131 4.812-.123 4.813-.117 4.812-.11 4.812-.103 4.812-.095 4.812-.089 4.812-.082 4.812-.075 4.812-.068 4.812-.06 4.812-.054 4.812-.046 4.812-.04 4.812-.032 4.812-.025 4.812-.018 4.812-.01 4.812-.004 4.812.004 4.812.01 4.812.018 4.812.025 4.812.032 4.812.04 4.812.046 4.812.054 4.812.06 4.812.068 4.812.075 4.812.082 4.812.089 4.812.095 4.812.103 4.812.11 4.813.117 4.812.123 4.812.131 4.812.137 4.812.145 4.812.15 4.812.158 4.812.164 4.812.172 4.812.177 4.812.184 4.812.191 4.812.197 4.812.204 4.812.21 4.812.216 4.812.223 4.812.228 4.812.235 4.812.242 4.812.247 4.812.253 4.812.259 4.812.265 4.812.27 4.812.277 4.812.281 4.812.288 4.812.293 4.812.299 4.812.304 4.812.309 4.812.314 4.813.32 4.812.325 4.812.329 461.951 39.704 4.82.329 4.81.325 4.81.32 4.81.314 4.81.309 4.82.304 4.81.299 4.81.293 4.81.288 4.81.281 4.82.277 4.81.27 4.81.265 4.81.259 4.81.253 4.82.247 4.81.242 4.81.235 4.81.228 4.81.223 4.82.216 4.81.21 4.81.204 4.81.197 4.81.191 4.82.184 4.81.177 4.81.172 4.81.164 4.81.158 4.82.15 4.81.145 4.81.137 4.81.131 4.81.123 4.82.117 4.81.11 4.81.103 4.81.095 4.81.089 4.82.082 4.81.075 4.81.068 4.81.06 4.81.054 4.82.046 4.81.04 4.81.032 4.81.025 4.81.018 4.82.01 4.81.004 4.81-.004 4.81-.01 4.82-.018 4.81-.025 4.81-.032 4.81-.04 4.81-.046 4.82-.054 4.81-.06 4.81-.068 4.81-.075 4.81-.082 4.82-.089 4.81-.095 4.81-.103 4.81-.11 4.81-.117 4.82-.123 4.81-.131 4.81-.137 4.81-.145 4.81-.15 4.82-.158 4.81-.164 4.81-.172 4.81-.177 4.81-.184 4.82-.191 4.81-.197 4.81-.204 4.81-.21 4.81-.216 4.82-.223 4.81-.228 4.81-.235 4.81-.242 4.81-.247 4.82-.253 4.81-.259 4.81-.265 4.81-.27 4.81-.277 4.82-.281 4.81-.288 4.81-.293 4.81-.299 4.81-.304 4.82-.309 4.81-.314 4.81-.32 4.81-.325 4.81-.329L1920 699.456V181H0v518z"/><path d="M1920 53l-230.98 19.852-4.81.33-4.81.324-4.81.32-4.82.314-4.81.31-4.81.303-4.81.299-4.81.293-4.82.287-4.81.282-4.81.277-4.81.27-4.81.265-4.82.26-4.81.252-4.81.248-4.81.24-4.81.236-4.82.228-4.81.223-4.81.216-4.81.21-4.81.204-4.82.197-4.81.19-4.81.185-4.81.178-4.81.17-4.82.165-4.81.157-4.81.151-4.81.145-4.81.137-4.82.13-4.81.124-4.81.117-4.81.11-4.81.103-4.82.095-4.81.09-4.81.081-4.81.075-4.81.068-4.82.06-4.81.054-4.81.046-4.81.04-4.81.032-4.82.025-4.81.018-4.81.01-4.81.004-4.82-.004-4.81-.01-4.81-.018-4.81-.025-4.81-.032-4.82-.04-4.81-.046-4.81-.054-4.81-.06-4.81-.068-4.82-.075-4.81-.082-4.81-.089-4.81-.095-4.81-.103-4.82-.11-4.81-.117-4.81-.123-4.81-.131-4.81-.137-4.82-.145-4.81-.15-4.81-.158-4.81-.165-4.81-.17-4.82-.178-4.81-.184-4.81-.191-4.81-.197-4.81-.204-4.82-.21-4.81-.216-4.81-.223-4.81-.228-4.81-.235-4.82-.242-4.81-.247-4.81-.253-4.81-.259-4.81-.264-4.82-.271-4.81-.276-4.81-.283-4.81-.287-4.81-.293-4.82-.299-4.81-.304-4.81-.309-4.81-.314-4.81-.32-4.82-.325-4.81-.33-461.953-39.703-4.812-.33-4.812-.324-4.812-.32-4.812-.314-4.813-.31-4.812-.303-4.812-.299-4.812-.293-4.812-.288-4.812-.282-4.812-.276-4.812-.27-4.812-.265-4.812-.26-4.812-.252-4.812-.247-4.812-.242-4.812-.235-4.812-.228-4.812-.223-4.812-.216-4.812-.21-4.812-.204-4.812-.197-4.812-.19-4.812-.185-4.812-.178-4.812-.17-4.812-.165-4.812-.157-4.812-.151-4.812-.145-4.812-.137-4.812-.13-4.812-.124-4.812-.117-4.812-.11-4.812-.103-4.813-.096-4.812-.088-4.812-.082-4.812-.075-4.812-.068-4.812-.06-4.812-.054-4.812-.046-4.812-.04-4.812-.032-4.812-.025-4.812-.018-4.812-.01-4.812-.004-4.812.004-4.812.01-4.812.018-4.812.025-4.812.032-4.812.04-4.812.046-4.812.054-4.812.06-4.812.068-4.812.075-4.812.082-4.812.088-4.812.096-4.812.103-4.812.11-4.812.117-4.812.123-4.812.131-4.813.137-4.812.145-4.812.15-4.812.158-4.812.165-4.812.17-4.812.178-4.812.184-4.812.191-4.812.197-4.812.204-4.812.21-4.812.216-4.812.223-4.812.229-4.812.234-4.812.242-4.812.247-4.812.253-4.812.259-4.812.264-4.812.271-4.812.276-4.812.282-4.812.288-4.812.293-4.812.299-4.812.304-4.812.309-4.812.314-4.812.32-4.812.325-4.812.33L0 52.543V547h1920V53z"/><path d="M0 723l230.977-19.852 4.812-.329 4.812-.325 4.813-.32 4.812-.314 4.812-.309 4.812-.304 4.812-.299 4.812-.293 4.812-.288 4.812-.281 4.812-.277 4.812-.27 4.812-.265 4.812-.259 4.812-.253 4.812-.247 4.812-.242 4.812-.235 4.812-.228 4.812-.223 4.812-.216 4.812-.21 4.812-.204 4.812-.197 4.812-.191 4.812-.184 4.812-.177 4.812-.172 4.812-.164 4.812-.158 4.812-.15 4.812-.145 4.812-.137 4.812-.131 4.812-.123 4.813-.117 4.812-.11 4.812-.103 4.812-.095 4.812-.089 4.812-.082 4.812-.075 4.812-.068 4.812-.06 4.812-.054 4.812-.046 4.812-.04 4.812-.032 4.812-.025 4.812-.018 4.812-.01 4.812-.004 4.812.004 4.812.01 4.812.018 4.812.025 4.812.032 4.812.04 4.812.046 4.812.054 4.812.06 4.812.068 4.812.075 4.812.082 4.812.089 4.812.095 4.812.103 4.812.11 4.813.117 4.812.123 4.812.131 4.812.137 4.812.145 4.812.15 4.812.158 4.812.164 4.812.172 4.812.177 4.812.184 4.812.191 4.812.197 4.812.204 4.812.21 4.812.216 4.812.223 4.812.228 4.812.235 4.812.242 4.812.247 4.812.253 4.812.259 4.812.265 4.812.27 4.812.277 4.812.281 4.812.288 4.812.293 4.812.299 4.812.304 4.812.309 4.812.314 4.813.32 4.812.325 4.812.329 461.951 39.704 4.82.329 4.81.325 4.81.32 4.81.314 4.81.309 4.82.304 4.81.299 4.81.293 4.81.288 4.81.281 4.82.277 4.81.27 4.81.265 4.81.259 4.81.253 4.82.247 4.81.242 4.81.235 4.81.228 4.81.223 4.82.216 4.81.21 4.81.204 4.81.197 4.81.191 4.82.184 4.81.177 4.81.172 4.81.164 4.81.158 4.82.15 4.81.145 4.81.137 4.81.131 4.81.123 4.82.117 4.81.11 4.81.103 4.81.095 4.81.089 4.82.082 4.81.075 4.81.068 4.81.06 4.81.054 4.82.046 4.81.04 4.81.032 4.81.025 4.81.018 4.82.01 4.81.004 4.81-.004 4.81-.01 4.82-.018 4.81-.025 4.81-.032 4.81-.04 4.81-.046 4.82-.054 4.81-.06 4.81-.068 4.81-.075 4.81-.082 4.82-.089 4.81-.095 4.81-.103 4.81-.11 4.81-.117 4.82-.123 4.81-.131 4.81-.137 4.81-.145 4.81-.15 4.82-.158 4.81-.164 4.81-.172 4.81-.177 4.81-.184 4.82-.191 4.81-.197 4.81-.204 4.81-.21 4.81-.216 4.82-.223 4.81-.228 4.81-.235 4.81-.242 4.81-.247 4.82-.253 4.81-.259 4.81-.265 4.81-.27 4.81-.277 4.82-.281 4.81-.288 4.81-.293 4.81-.299 4.81-.304 4.82-.309 4.81-.314 4.81-.32 4.81-.325 4.81-.329L1920 723.456V205H0v518z"/><defs><linearGradient id="ca" x1="-233.59" y1="-58.892" x2="1856.41" y2="428.954" gradientUnits="userSpaceOnUse"><stop offset=".085" stop-color="#041080"/><stop offset="1" stop-color="#0926C0"/></linearGradient><linearGradient id="cb" x1="-233.59" y1="-58.892" x2="1856.41" y2="428.954" gradientUnits="userSpaceOnUse"><stop offset=".085" stop-color="#041080"/><stop offset="1" stop-color="#0926C0"/></linearGradient><linearGradient id="cc" x1="-233.59" y1="-58.892" x2="1856.41" y2="428.954" gradientUnits="userSpaceOnUse"><stop offset=".085" stop-color="#041080"/><stop offset="1" stop-color="#0926C0"/></linearGradient><linearGradient id="cd" x1="-233.59" y1="-58.892" x2="1856.41" y2="428.954" gradientUnits="userSpaceOnUse"><stop offset=".085" stop-color="#041080"/><stop offset="1" stop-color="#0926C0"/></linearGradient><linearGradient id="ce" x1="-233.59" y1="-58.892" x2="1856.41" y2="428.954" gradientUnits="userSpaceOnUse"><stop offset=".085" stop-color="#041080"/><stop offset="1" stop-color="#0926C0"/></linearGradient></defs></svg><svg viewBox="0 0 7 13" id="arrow" xmlns="http://www.w3.org/2000/svg"><path d="M5.703 12.943a.923.923 0 00.711-1.514L2.28 6.482l3.986-4.955A.923.923 0 006.128.225a.923.923 0 00-1.347.139L.323 5.9a.923.923 0 000 1.172l4.614 5.537a.923.923 0 00.766.333z"/></svg><svg viewBox="0 0 1920 850" id="hero-bg" xmlns="http://www.w3.org/2000/svg"><path d="M0 821l4.812-.456 4.812-.455 4.812-.455 4.812-.455 4.812-.454 4.812-.454 4.812-.453 4.812-.453 4.812-.451 4.812-.451 4.812-.449 4.812-.448 4.812-.447 4.812-.445 4.813-.444 4.812-.442 4.812-.44 4.811-.439 4.813-.436 4.812-.434 4.812-.433 4.812-.429 4.812-.428 4.812-.425 4.812-.422 4.812-.419 4.812-.417 4.812-.414 4.812-.41 4.812-.408 4.812-.404 4.812-.401 4.812-.397 4.812-.394 4.812-.39 4.812-.387 4.812-.383 4.812-.378 4.812-.375 4.812-.371 4.812-.366 4.812-.362 4.812-.358 4.812-.353 4.812-.349 4.812-.344 4.812-.339 4.812-.335 4.812-.329 4.812-.325 4.813-.32 4.812-.314 4.812-.309 4.812-.304 4.812-.299 4.812-.293 4.812-.288 4.812-.281 4.812-.277 4.812-.27 4.812-.265 4.812-.259 4.812-.253 4.812-.247 4.812-.242 4.812-.235 4.812-.228 4.812-.223 4.812-.216 4.812-.21 4.812-.204 4.812-.197 4.812-.191 4.812-.184 4.812-.177 4.812-.172 4.812-.164 4.812-.158 4.812-.15 4.812-.145 4.812-.137 4.812-.131 4.812-.123 4.813-.117 4.812-.11 4.812-.103 4.812-.095 4.812-.089 4.812-.082 4.812-.075 4.812-.068 4.812-.06 4.812-.054 4.812-.046 4.812-.04 4.812-.032 4.812-.025 4.812-.018 4.812-.01 4.812-.004 4.812.004 4.812.01 4.812.018 4.812.025 4.812.032 4.812.04 4.812.046 4.812.054 4.812.06 4.812.068 4.812.075 4.812.082 4.812.089 4.812.095 4.812.103 4.812.11 4.813.117 4.812.123 4.812.131 4.812.137 4.812.145 4.812.15 4.812.158 4.812.164 4.812.172 4.812.177 4.812.184 4.812.191 4.812.197 4.812.204 4.812.21 4.812.216 4.812.223 4.812.228 4.812.235 4.812.242 4.812.247 4.812.253 4.812.259 4.812.265 4.812.27 4.812.277 4.812.281 4.812.288 4.812.293 4.812.299 4.812.304 4.812.309 4.812.314 4.813.32 4.812.325 4.812.329 4.812.335 4.812.339 4.812.344 4.812.349 4.812.353 4.812.358 4.812.362 4.812.366 4.812.371 4.812.375 4.812.378 4.812.383 4.812.387 4.812.39 4.812.394 4.812.397 4.812.401 4.812.404 4.812.408 4.812.41 4.812.414 4.812.417 4.812.419 4.812.422 4.812.425 4.812.428 4.812.429 4.812.433 4.812.434 4.812.436 4.812.439 4.813.44 4.812.442 4.812.444 4.812.445 4.812.447 4.812.448 4.812.449 4.812.451 4.812.451 4.812.453 4.812.453 4.812.454 4.812.454 4.812.455 4.812.455 4.812.455 4.812.456 4.812.456 4.812.455 4.812.455 4.812.455 4.812.454 4.812.454 4.812.453 4.81.453 4.81.451 4.82.451 4.81.449 4.81.448 4.81.447 4.81.445 4.82.444 4.81.442 4.81.44 4.81.439 4.81.436 4.82.434 4.81.433 4.81.429 4.81.428 4.81.425 4.82.422 4.81.419 4.81.417 4.81.414 4.81.41 4.82.408 4.81.404 4.81.401 4.81.397 4.82.394 4.81.39 4.81.387 4.81.383 4.81.378 4.82.375 4.81.371 4.81.366 4.81.362 4.81.358 4.82.353 4.81.349 4.81.344 4.81.339 4.81.335 4.82.329 4.81.325 4.81.32 4.81.314 4.81.309 4.82.304 4.81.299 4.81.293 4.81.288 4.81.281 4.82.277 4.81.27 4.81.265 4.81.259 4.81.253 4.82.247 4.81.242 4.81.235 4.81.228 4.81.223 4.82.216 4.81.21 4.81.204 4.81.197 4.81.191 4.82.184 4.81.177 4.81.172 4.81.164 4.81.158 4.82.15 4.81.145 4.81.137 4.81.131 4.81.123 4.82.117 4.81.11 4.81.103 4.81.095 4.81.089 4.82.082 4.81.075 4.81.068 4.81.06 4.81.054 4.82.046 4.81.04 4.81.032 4.81.025 4.81.018 4.82.01 4.81.004 4.81-.004 4.81-.01 4.82-.018 4.81-.025 4.81-.032 4.81-.04 4.81-.046 4.82-.054 4.81-.06 4.81-.068 4.81-.075 4.81-.082 4.82-.089 4.81-.095 4.81-.103 4.81-.11 4.81-.117 4.82-.123 4.81-.131 4.81-.137 4.81-.145 4.81-.15 4.82-.158 4.81-.164 4.81-.172 4.81-.177 4.81-.184 4.82-.191 4.81-.197 4.81-.204 4.81-.21 4.81-.216 4.82-.223 4.81-.228 4.81-.235 4.81-.242 4.81-.247 4.82-.253 4.81-.259 4.81-.265 4.81-.27 4.81-.277 4.82-.281 4.81-.288 4.81-.293 4.81-.299 4.81-.304 4.82-.309 4.81-.314 4.81-.32 4.81-.325 4.81-.329 4.82-.335 4.81-.339 4.81-.344 4.81-.349 4.81-.353 4.82-.358 4.81-.362 4.81-.366 4.81-.371 4.81-.375 4.82-.378 4.81-.383 4.81-.387 4.81-.39 4.81-.394 4.82-.397 4.81-.401 4.81-.404 4.81-.408 4.82-.41 4.81-.414 4.81-.417 4.81-.419 4.81-.422 4.82-.425 4.81-.428 4.81-.429 4.81-.433 4.81-.434 4.82-.436 4.81-.439 4.81-.44 4.81-.442 4.81-.444 4.82-.445 4.81-.447 4.81-.448 4.81-.449 4.81-.451 4.82-.451 4.81-.453 4.81-.453 4.81-.454 4.81-.454 4.82-.455 4.81-.455 4.81-.455V0H0v821z"/></svg><svg viewBox="0 0 14 11" id="hero-point" xmlns="http://www.w3.org/2000/svg"><path d="M.162 6.05A.6.6 0 010 5.665a.6.6 0 01.162-.385l.753-.77a.513.513 0 01.754 0l.054.055L4.685 7.81c.107.11.269.11.377 0L12.277.165h.054a.513.513 0 01.754 0l.753.77a.54.54 0 010 .77l-8.615 9.13a.484.484 0 01-.377.165.484.484 0 01-.377-.165l-4.2-4.62-.107-.165z"/><defs><linearGradient id="fa" x1="7" y1="0" x2="7" y2="11" gradientUnits="userSpaceOnUse"><stop stop-color="#48FFFF"/><stop offset=".963" stop-color="#25A4F1"/></linearGradient></defs></svg><svg viewBox="0 0 16 16" id="lock" xmlns="http://www.w3.org/2000/svg"><path d="M6.578 6v1.333h2.844V6c0-.735-.638-1.333-1.422-1.333-.784 0-1.422.598-1.422 1.333z"/><path fill-rule="evenodd" clip-rule="evenodd" d="M8 16A8 8 0 108 0a8 8 0 000 16zm2.133-10v1.333H11.2V12H4.8V7.333h1.067V6c0-1.104.955-2 2.133-2s2.133.896 2.133 2z"/></svg><svg class="hmakers-bg" viewBox="0 0 1920 728" id="makers-bg" xmlns="http://www.w3.org/2000/svg"><path d="M1920 29l-230.98 19.852-4.81.33-4.81.324-4.81.32-4.82.314-4.81.31-4.81.303-4.81.299-4.81.293-4.82.288-4.81.281-4.81.277-4.81.27-4.81.265-4.82.26-4.81.252-4.81.248-4.81.24-4.81.236-4.82.228-4.81.223-4.81.216-4.81.21-4.81.204-4.82.197-4.81.19-4.81.185-4.81.177-4.81.172-4.82.164-4.81.157-4.81.152-4.81.144-4.81.137-4.82.13-4.81.124-4.81.117-4.81.11-4.81.103-4.82.096-4.81.088-4.81.082-4.81.075-4.81.068-4.82.06-4.81.054-4.81.046-4.81.04-4.81.032-4.82.025-4.81.018-4.81.01-4.81.004-4.82-.004-4.81-.01-4.81-.018-4.81-.025-4.81-.032-4.82-.04-4.81-.046-4.81-.054-4.81-.06-4.81-.068-4.82-.075-4.81-.082-4.81-.088-4.81-.096-4.81-.103-4.82-.11-4.81-.117-4.81-.123-4.81-.131-4.81-.137-4.82-.145-4.81-.15-4.81-.158-4.81-.164-4.81-.172-4.82-.177-4.81-.184-4.81-.191-4.81-.197-4.81-.204-4.82-.21-4.81-.216-4.81-.223-4.81-.228-4.81-.235-4.82-.241-4.81-.248-4.81-.253-4.81-.259-4.81-.264-4.82-.271-4.81-.277-4.81-.282-4.81-.287-4.81-.293-4.82-.299-4.81-.304-4.81-.309-4.81-.314-4.81-.32-4.82-.325-4.81-.33L726.617 9.149l-4.812-.33-4.812-.324-4.812-.32-4.812-.314-4.813-.31-4.812-.303-4.812-.299-4.812-.293-4.812-.288-4.812-.281-4.812-.277-4.812-.27-4.812-.265-4.812-.26-4.812-.252-4.812-.247-4.812-.242L640 4.038l-4.812-.228-4.812-.223-4.812-.216-4.812-.21-4.812-.204-4.812-.197-4.812-.19-4.812-.185-4.812-.177-4.812-.171-4.812-.165-4.812-.158-4.812-.15-4.812-.145-4.812-.137-4.812-.13-4.812-.124-4.812-.117-4.812-.11-4.812-.103-4.813-.095-4.812-.09-4.812-.081-4.812-.075-4.812-.068-4.812-.06-4.812-.054-4.812-.046-4.812-.04-4.812-.032-4.812-.025-4.812-.018-4.812-.01L476.391 0l-4.812.004-4.812.01-4.812.018-4.812.025-4.812.032-4.812.04-4.812.046-4.812.054-4.812.06-4.812.068-4.812.075-4.812.082-4.812.089-4.812.095-4.812.103-4.812.11-4.812.117-4.812.123-4.812.131-4.813.137-4.812.145-4.812.15-4.812.158-4.812.165-4.812.17-4.812.178-4.812.184-4.812.191-4.812.197-4.812.204-4.812.21-4.812.216-4.812.223-4.812.228-4.812.235-4.812.242-4.812.247-4.812.253-4.812.259-4.812.265-4.812.27-4.812.277-4.812.281-4.812.288-4.812.293-4.812.299-4.812.304-4.812.309-4.812.314-4.812.32-4.812.325-4.812.33L0 28.543V523h1920V29z"/><path d="M0 699l230.977-19.852 4.812-.329 4.812-.325 4.813-.32 4.812-.314 4.812-.309 4.812-.304 4.812-.299 4.812-.293 4.812-.288 4.812-.281 4.812-.277 4.812-.27 4.812-.265 4.812-.259 4.812-.253 4.812-.247 4.812-.242 4.812-.235 4.812-.228 4.812-.223 4.812-.216 4.812-.21 4.812-.204 4.812-.197 4.812-.191 4.812-.184 4.812-.177 4.812-.172 4.812-.164 4.812-.158 4.812-.15 4.812-.145 4.812-.137 4.812-.131 4.812-.123 4.813-.117 4.812-.11 4.812-.103 4.812-.095 4.812-.089 4.812-.082 4.812-.075 4.812-.068 4.812-.06 4.812-.054 4.812-.046 4.812-.04 4.812-.032 4.812-.025 4.812-.018 4.812-.01 4.812-.004 4.812.004 4.812.01 4.812.018 4.812.025 4.812.032 4.812.04 4.812.046 4.812.054 4.812.06 4.812.068 4.812.075 4.812.082 4.812.089 4.812.095 4.812.103 4.812.11 4.813.117 4.812.123 4.812.131 4.812.137 4.812.145 4.812.15 4.812.158 4.812.164 4.812.172 4.812.177 4.812.184 4.812.191 4.812.197 4.812.204 4.812.21 4.812.216 4.812.223 4.812.228 4.812.235 4.812.242 4.812.247 4.812.253 4.812.259 4.812.265 4.812.27 4.812.277 4.812.281 4.812.288 4.812.293 4.812.299 4.812.304 4.812.309 4.812.314 4.813.32 4.812.325 4.812.329 461.951 39.704 4.82.329 4.81.325 4.81.32 4.81.314 4.81.309 4.82.304 4.81.299 4.81.293 4.81.288 4.81.281 4.82.277 4.81.27 4.81.265 4.81.259 4.81.253 4.82.247 4.81.242 4.81.235 4.81.228 4.81.223 4.82.216 4.81.21 4.81.204 4.81.197 4.81.191 4.82.184 4.81.177 4.81.172 4.81.164 4.81.158 4.82.15 4.81.145 4.81.137 4.81.131 4.81.123 4.82.117 4.81.11 4.81.103 4.81.095 4.81.089 4.82.082 4.81.075 4.81.068 4.81.06 4.81.054 4.82.046 4.81.04 4.81.032 4.81.025 4.81.018 4.82.01 4.81.004 4.81-.004 4.81-.01 4.82-.018 4.81-.025 4.81-.032 4.81-.04 4.81-.046 4.82-.054 4.81-.06 4.81-.068 4.81-.075 4.81-.082 4.82-.089 4.81-.095 4.81-.103 4.81-.11 4.81-.117 4.82-.123 4.81-.131 4.81-.137 4.81-.145 4.81-.15 4.82-.158 4.81-.164 4.81-.172 4.81-.177 4.81-.184 4.82-.191 4.81-.197 4.81-.204 4.81-.21 4.81-.216 4.82-.223 4.81-.228 4.81-.235 4.81-.242 4.81-.247 4.82-.253 4.81-.259 4.81-.265 4.81-.27 4.81-.277 4.82-.281 4.81-.288 4.81-.293 4.81-.299 4.81-.304 4.82-.309 4.81-.314 4.81-.32 4.81-.325 4.81-.329L1920 699.456V181H0v518z"/></svg><svg viewBox="0 0 15 15" id="phone" xmlns="http://www.w3.org/2000/svg"><path d="M14.662 11.453c-.041-.123-.3-.303-.777-.541a25.931 25.931 0 00-.551-.307 55.47 55.47 0 01-.649-.357 21.75 21.75 0 01-.547-.317c-.027-.02-.112-.08-.255-.179a2.87 2.87 0 00-.363-.22.669.669 0 00-.291-.071c-.136 0-.306.097-.51.291a4.976 4.976 0 00-.563.634c-.17.228-.35.439-.54.633-.192.194-.348.291-.47.291a.696.696 0 01-.23-.05 2.378 2.378 0 01-.21-.088 3.79 3.79 0 01-.245-.143 6.255 6.255 0 00-.195-.117c-.933-.518-1.733-1.11-2.4-1.778-.668-.667-1.26-1.468-1.778-2.4a5.882 5.882 0 00-.118-.195 3.69 3.69 0 01-.143-.245 2.217 2.217 0 01-.087-.21.691.691 0 01-.05-.23c0-.122.096-.279.29-.47.195-.19.406-.37.634-.54.228-.17.44-.358.633-.562.194-.205.292-.375.292-.511a.667.667 0 00-.072-.291 2.839 2.839 0 00-.22-.363 13.371 13.371 0 00-.179-.256c-.102-.17-.207-.352-.316-.546-.11-.194-.228-.41-.358-.649a24.3 24.3 0 00-.306-.551C3.849.638 3.669.379 3.546.338a.572.572 0 00-.214-.03c-.184 0-.424.034-.72.102-.297.068-.53.14-.7.214-.34.143-.702.559-1.083 1.247-.348.64-.521 1.273-.521 1.9 0 .183.012.362.035.536.024.174.067.37.128.587.061.218.11.38.148.486.038.105.107.294.21.567.102.272.163.439.183.5.239.668.522 1.264.848 1.788.538.872 1.272 1.773 2.202 2.702.93.93 1.83 1.664 2.702 2.202.525.327 1.12.61 1.788.848.062.02.228.082.5.184.273.102.462.172.568.21.105.037.267.086.485.148.218.061.414.104.588.128a4 4 0 00.536.035c.627 0 1.26-.174 1.9-.52.688-.382 1.103-.743 1.246-1.084.076-.17.147-.403.215-.7.068-.296.102-.536.102-.72a.569.569 0 00-.03-.215z"/></svg><svg viewBox="0 0 440 269" id="work-1" xmlns="http://www.w3.org/2000/svg"><path d="M20 0C8.954 0 0 8.954 0 20v228.372c0 11.046 8.954 20 20 20h373c11.046 0 20-8.954 20-20v-71.299l25.319-37.75c1.539-2.293 1.539-6.011 0-8.305L413 93.268V20c0-11.046-8.954-20-20-20H20z"/><path d="M20 0C8.954 0 0 8.954 0 20v228.372c0 11.046 8.954 20 20 20h373c11.046 0 20-8.954 20-20v-71.299l25.319-37.75c1.539-2.293 1.539-6.011 0-8.305L413 93.268V20c0-11.046-8.954-20-20-20H20z"/><path d="M20 0C8.954 0 0 8.954 0 20v228.372c0 11.046 8.954 20 20 20h373c11.046 0 20-8.954 20-20v-71.299l25.319-37.75c1.539-2.293 1.539-6.011 0-8.305L413 93.268V20c0-11.046-8.954-20-20-20H20z"/><defs><linearGradient id="ja" x1="219.736" y1="0" x2="219.736" y2="268.372" gradientUnits="userSpaceOnUse"><stop stop-color="#969AF7"/><stop offset="1" stop-color="#686EEC"/></linearGradient><linearGradient id="jb" x1="-53.467" y1="-21.017" x2="439.923" y2="52.848" gradientUnits="userSpaceOnUse"><stop offset=".085" stop-color="#041080"/><stop offset="1" stop-color="#0926C0"/></linearGradient></defs></svg><svg viewBox="0 0 413 299" id="work-3" xmlns="http://www.w3.org/2000/svg"><mask id="ka" maskUnits="userSpaceOnUse" x="0" y="0" width="413" height="299"><path d="M20 0C8.954 0 0 8.954 0 20v64.982l28.017 46.013c1.436 2.359 1.436 6.183 0 8.542L0 185.55v62.822c0 11.046 8.954 20 20 20h373c11.046 0 20-8.954 20-20V20c0-11.046-8.954-20-20-20H20z"/><path d="M20 0C8.954 0 0 8.954 0 20v64.982l28.017 46.013c1.436 2.359 1.436 6.183 0 8.542L0 185.55v62.822c0 11.046 8.954 20 20 20h373c11.046 0 20-8.954 20-20V20c0-11.046-8.954-20-20-20H20z"/><path d="M150.208 244.803c-1.991-1.912-1.948-4.968.096-6.824l55.234-50.14c2.045-1.857 5.317-1.81 7.308.102l54.081 51.942c1.991 1.913 1.948 4.968-.096 6.824l-55.234 50.141c-2.045 1.856-5.317 1.81-7.309-.103l-54.08-51.942z"/><path d="M150.208 244.803c-1.991-1.912-1.948-4.968.096-6.824l55.234-50.14c2.045-1.857 5.317-1.81 7.308.102l54.081 51.942c1.991 1.913 1.948 4.968-.096 6.824l-55.234 50.141c-2.045 1.856-5.317 1.81-7.309-.103l-54.08-51.942z"/></mask><g mask="url(#ka)"><rect opacity=".06" x="335.2" y="110" width="441.517" height="441.517" rx="30" transform="rotate(45 335.2 110)"/></g><defs><linearGradient id="ka" x1="-50.246" y1="-23.354" x2="416.335" y2="35.722" gradientUnits="userSpaceOnUse"><stop offset=".085" stop-color="#041080"/><stop offset="1" stop-color="#0926C0"/></linearGradient><linearGradient id="kb" x1="-50.246" y1="-23.354" x2="416.335" y2="35.722" gradientUnits="userSpaceOnUse"><stop offset=".085" stop-color="#041080"/><stop offset="1" stop-color="#0926C0"/></linearGradient></defs></svg><svg viewBox="0 0 440 269" id="work-item-bg-1" xmlns="http://www.w3.org/2000/svg"><mask id="la" maskUnits="userSpaceOnUse" x="0" y="0" width="440" height="269"><path d="M20 0C8.954 0 0 8.954 0 20v228.372c0 11.046 8.954 20 20 20h373c11.046 0 20-8.954 20-20v-71.299l25.319-37.75c1.539-2.293 1.539-6.011 0-8.305L413 93.268V20c0-11.046-8.954-20-20-20H20z"/><path d="M20 0C8.954 0 0 8.954 0 20v228.372c0 11.046 8.954 20 20 20h373c11.046 0 20-8.954 20-20v-71.299l25.319-37.75c1.539-2.293 1.539-6.011 0-8.305L413 93.268V20c0-11.046-8.954-20-20-20H20z"/><path d="M20 0C8.954 0 0 8.954 0 20v228.372c0 11.046 8.954 20 20 20h373c11.046 0 20-8.954 20-20v-71.299l25.319-37.75c1.539-2.293 1.539-6.011 0-8.305L413 93.268V20c0-11.046-8.954-20-20-20H20z"/></mask><g mask="url(#la)"><rect opacity=".06" x="361.2" y="110" width="441.517" height="441.517" rx="30" transform="rotate(45 361.2 110)"/></g><defs><linearGradient id="la" x1="219.736" y1="0" x2="219.736" y2="268.372" gradientUnits="userSpaceOnUse"><stop stop-color="#969AF7"/><stop offset="1" stop-color="#686EEC"/></linearGradient><linearGradient id="lb" x1="-53.467" y1="-21.017" x2="439.923" y2="52.848" gradientUnits="userSpaceOnUse"><stop offset=".085" stop-color="#041080"/><stop offset="1" stop-color="#0926C0"/></linearGradient></defs></svg><svg viewBox="0 0 440 269" id="work-item-bg-2" xmlns="http://www.w3.org/2000/svg"><mask id="ma" maskUnits="userSpaceOnUse" x="0" y="0" width="440" height="269"><path d="M20 0C8.954 0 0 8.954 0 20v228.372c0 11.046 8.954 20 20 20h373c11.046 0 20-8.954 20-20v-71.299l25.319-37.75c1.539-2.293 1.539-6.011 0-8.305L413 93.268V20c0-11.046-8.954-20-20-20H20z"/><path d="M20 0C8.954 0 0 8.954 0 20v228.372c0 11.046 8.954 20 20 20h373c11.046 0 20-8.954 20-20v-71.299l25.319-37.75c1.539-2.293 1.539-6.011 0-8.305L413 93.268V20c0-11.046-8.954-20-20-20H20z"/><path d="M20 0C8.954 0 0 8.954 0 20v228.372c0 11.046 8.954 20 20 20h373c11.046 0 20-8.954 20-20v-71.299l25.319-37.75c1.539-2.293 1.539-6.011 0-8.305L413 93.268V20c0-11.046-8.954-20-20-20H20z"/></mask><g mask="url(#ma)"><rect opacity=".06" x="361.2" y="110" width="441.517" height="441.517" rx="30" transform="rotate(45 361.2 110)"/></g><defs><linearGradient id="ma" x1="219.736" y1="0" x2="219.736" y2="268.372" gradientUnits="userSpaceOnUse"><stop stop-color="#969AF7"/><stop offset="1" stop-color="#686EEC"/></linearGradient><linearGradient id="mb" x1="-53.467" y1="-21.017" x2="439.923" y2="52.848" gradientUnits="userSpaceOnUse"><stop offset=".085" stop-color="#041080"/><stop offset="1" stop-color="#0926C0"/></linearGradient></defs></svg></svg>